<?xml version="1.0" standalone="no"?>
<!DOCTYPE svg PUBLIC "-//W3C//DTD SVG 20010904//EN"
 "http://www.w3.org/TR/2001/REC-SVG-20010904/DTD/svg10.dtd">
<svg version="1.0" xmlns="http://www.w3.org/2000/svg"
 width="512.000000pt" height="512.000000pt" viewBox="0 0 512.000000 512.000000"
 preserveAspectRatio="xMidYMid meet">
<metadata>
Created by potrace 1.11, written by Peter Selinger 2001-2013
</metadata>
<g transform="translate(0.000000,512.000000) scale(0.100000,-0.100000)"
fill="#000000" stroke="none">
<path d="M2470 4860 c-708 -47 -1376 -452 -1741 -1056 -216 -358 -323 -742
-323 -1159 0 -357 66 -645 224 -970 328 -677 969 -1135 1722 -1231 192 -24
483 -16 668 20 706 134 1282 571 1594 1209 297 608 301 1313 11 1924 -391 824
-1243 1323 -2155 1263z m399 -415 c687 -98 1261 -575 1480 -1231 150 -446 128
-899 -64 -1336 -167 -381 -484 -709 -867 -897 -820 -402 -1829 -128 -2331 632
-244 372 -350 820 -292 1248 109 820 732 1456 1553 1583 119 19 392 19 521 1z"/>
<path d="M2510 3430 l0 -729 -22 -12 c-13 -6 -24 -13 -26 -14 -2 -2 7 -23 19
-47 15 -28 25 -69 28 -118 l6 -75 98 -3 97 -3 0 70 0 69 493 217 c270 120 496
222 501 226 10 9 -61 179 -75 179 -5 0 -208 -88 -451 -196 -244 -108 -449
-198 -455 -201 -10 -4 -13 136 -13 681 l0 686 -100 0 -100 0 0 -730z"/>
</g>
</svg>
